<svg xmlns="http://www.w3.org/2000/svg" version="1.2" baseProfile="tiny-ps" viewBox="0 0 480 480"><title>Cyber ICE Box</title><rect width="480" height="480" fill="#FFFFFF"/><path d="M0 0 C2 5 -0 9 -2 14 C-2 15 -2 16 -3 17 C-4 23 -6 29 -8 34 C-7 34 -6 35 -4 35 C2 37 9 40 15 43 C18 44 20 45 23 46 C23 46 23 46 26 47 C28 48 30 48 32 49 C32 48 33 46 33 45 C35 42 37 39 40 36 C45 30 50 23 55 16 C55 25 45 35 40 42 C37 46 37 46 34 51 C35 51 36 52 38 52 C43 54 49 56 54 59 C57 60 60 61 64 62 C72 66 78 71 83 80 C85 85 85 91 85 97 C85 98 85 100 85 102 C85 103 85 105 85 107 C85 109 85 110 85 112 C85 116 85 121 85 125 C86 125 86 125 90 125 C102 123 115 123 127 123 C127 124 127 124 127 125 C125 125 124 125 122 126 C120 126 117 126 115 126 C114 127 113 127 112 127 C110 127 109 127 108 127 C107 127 106 128 105 128 C103 128 100 128 98 129 C93 129 89 129 85 129 C85 130 85 131 85 132 C85 141 85 150 85 159 C85 163 85 166 85 170 C85 175 85 180 85 184 C85 186 85 187 85 189 C85 199 84 208 81 218 C82 218 83 218 84 218 C88 219 90 221 93 223 C93 223 93 223 96 225 C98 227 98 227 99 230 C98 233 98 233 97 236 C96 237 96 238 95 239 C94 242 94 242 91 245 C91 246 90 248 90 249 C89 254 88 259 86 264 C86 265 85 267 85 268 C83 272 81 273 78 276 C74 282 71 288 71 295 C71 296 72 298 72 299 C74 309 74 309 74 314 C72 314 71 313 69 312 C47 307 30 316 11 325 C4 329 -4 332 -11 336 C-12 336 -12 336 -15 338 C-49 354 -49 354 -56 354 C-57 354 -58 354 -59 354 C-69 353 -77 349 -85 344 C-92 340 -99 337 -106 333 C-109 332 -113 330 -116 328 C-123 325 -129 322 -136 319 C-138 318 -139 317 -141 316 C-155 310 -166 309 -180 312 C-183 313 -183 313 -187 313 C-187 309 -187 305 -186 301 C-185 291 -187 284 -192 275 C-193 274 -194 274 -195 273 C-198 269 -199 264 -200 259 C-202 250 -204 244 -209 237 C-212 232 -212 232 -212 228 C-209 226 -209 226 -205 223 C-197 219 -197 219 -196 217 C-196 215 -196 212 -196 210 C-196 209 -196 208 -196 206 C-196 205 -196 203 -196 202 C-196 200 -196 199 -196 198 C-196 194 -196 191 -196 187 C-197 187 -198 188 -199 188 C-201 189 -203 189 -204 190 C-206 190 -207 191 -209 191 C-213 192 -216 192 -220 191 C-217 188 -213 188 -209 187 C-208 187 -208 187 -204 186 C-200 185 -200 185 -196 185 C-196 166 -196 147 -196 127 C-208 125 -220 123 -232 121 C-232 121 -232 120 -232 120 C-229 120 -225 120 -222 120 C-220 120 -218 121 -216 121 C-209 121 -203 122 -196 123 C-196 122 -196 121 -196 119 C-196 114 -196 109 -196 103 C-196 101 -196 99 -197 98 C-197 87 -196 80 -190 71 C-187 68 -187 68 -184 66 C-179 62 -179 62 -178 60 C-180 59 -181 59 -183 58 C-185 57 -187 55 -189 54 C-188 54 -188 53 -187 53 C-184 55 -182 56 -179 58 C-173 60 -169 58 -164 56 C-162 55 -160 54 -158 53 C-157 53 -156 53 -155 52 C-153 51 -150 50 -148 49 C-149 48 -149 47 -150 45 C-153 40 -156 34 -159 28 C-160 27 -160 26 -161 25 C-162 23 -164 20 -165 18 C-165 18 -165 18 -163 17 C-162 18 -162 19 -161 20 C-155 29 -149 38 -143 47 C-142 46 -140 46 -139 45 C-134 43 -134 43 -108 33 C-109 27 -111 21 -113 14 C-114 10 -114 10 -114 5 C-111 9 -109 13 -108 19 C-107 20 -107 22 -106 24 C-105 28 -105 28 -105 31 C-95 27 -85 23 -75 19 C-64 14 -55 12 -44 16 C-35 20 -26 24 -18 29 C-13 31 -13 31 -10 32 C-10 30 -9 28 -9 27 C-7 17 -3 9 0 0Z" fill="#0E2332" transform="translate(294,61)"/><path d="M0 0 C7 3 13 6 19 9 C22 11 25 12 28 13 C35 16 42 19 48 22 C57 26 66 30 74 33 C77 35 77 35 80 38 C81 41 81 41 81 45 C81 46 81 48 81 49 C80 55 80 59 75 63 C75 66 75 66 75 70 C75 71 75 73 75 74 C75 75 75 75 75 79 C75 80 75 82 75 83 C74 87 74 90 74 94 C76 94 77 95 78 95 C82 101 81 109 80 116 C78 120 75 122 71 125 C70 126 69 126 68 127 C61 133 53 138 45 142 C38 146 32 150 25 155 C21 157 21 157 17 156 C18 155 19 155 20 154 C27 149 34 144 41 138 C42 137 43 136 44 136 C53 129 62 121 67 111 C50 118 34 127 17 135 C15 136 12 137 10 138 C3 142 0 145 -4 152 C-5 157 -5 157 -6 160 C-7 160 -8 160 -9 160 C-9 158 -10 157 -10 155 C-13 146 -18 140 -27 135 C-28 135 -28 135 -32 133 C-37 130 -42 128 -47 125 C-52 122 -58 119 -63 116 C-64 115 -65 115 -66 114 C-72 111 -77 109 -83 106 C-82 108 -81 109 -80 111 C-79 112 -78 114 -78 115 C-77 115 -76 115 -76 115 C-74 116 -73 118 -71 120 C-71 121 -70 122 -69 123 C-67 125 -65 128 -63 131 C-55 141 -55 141 -51 143 C-52 139 -53 135 -55 131 C-54 131 -53 131 -53 131 C-50 135 -48 138 -46 142 C-44 144 -43 146 -42 148 C-41 149 -41 149 -39 153 C-38 154 -37 155 -37 156 C-41 156 -44 157 -48 156 C-51 153 -54 149 -57 145 C-59 143 -60 141 -62 138 C-66 134 -70 128 -74 123 C-76 121 -76 121 -81 118 C-89 111 -89 111 -89 103 C-89 101 -89 99 -89 97 C-89 96 -89 95 -89 94 C-89 85 -88 77 -86 68 C-86 64 -86 64 -87 61 C-88 60 -89 60 -90 59 C-92 54 -92 51 -92 46 C-92 46 -92 46 -92 42 C-92 39 -92 39 -90 37 C-76 29 -62 23 -48 16 C-36 11 -25 6 -14 -0 C-9 -2 -4 -1 0 0Z" fill="#4ABEE9" transform="translate(243.67578125,110.1015625)"/><path d="M0 0 C3 4 3 9 4 14 C4 14 4 14 5 17 C6 28 7 39 8 50 C-13 55 -33 58 -55 60 C-56 60 -57 60 -58 60 C-73 62 -89 61 -104 60 C-105 60 -107 60 -109 60 C-120 59 -132 58 -143 56 C-144 56 -146 56 -147 55 C-151 55 -155 54 -159 53 C-160 53 -162 52 -163 52 C-166 52 -169 51 -172 50 C-173 47 -173 45 -172 42 C-172 41 -172 41 -172 38 C-172 37 -171 35 -171 34 C-171 33 -171 31 -171 30 C-170 27 -170 25 -170 22 C-169 17 -168 11 -167 6 C-167 3 -167 3 -166 1 C-161 2 -161 2 -156 4 C-110 21 -45 18 0 0Z" fill="#5F6365" transform="translate(318,265)"/><path d="M0 0 C0 8 0 16 0 23 C0 26 0 29 0 31 C0 35 0 39 0 43 C0 44 0 45 0 47 C0 53 -0 58 -4 64 C-9 68 -14 70 -20 73 C-25 75 -30 78 -35 80 C-39 82 -42 83 -46 83 C-46 84 -46 84 -46 85 C-53 88 -53 88 -58 88 C-58 89 -58 89 -58 90 C-59 90 -59 90 -65 92 C-69 86 -70 80 -70 73 C-70 72 -70 71 -70 69 C-70 66 -70 62 -70 59 C-70 56 -70 54 -70 51 C-70 45 -70 39 -70 33 C-68 32 -65 31 -63 30 C-63 29 -64 28 -64 27 C-60 24 -57 22 -52 19 C-51 19 -50 18 -49 17 C-46 16 -46 16 -41 16 C-41 17 -41 18 -41 19 C-37 17 -34 16 -30 14 C-30 14 -29 13 -28 13 C-22 10 -16 8 -11 5 C-10 4 -8 4 -7 3 C-2 0 -2 0 0 0Z" fill="#0E4163" transform="translate(308,153)"/><path d="M0 0 C8 3 15 7 23 11 C26 13 30 14 34 15 C38 17 43 19 47 21 C50 23 54 24 57 25 C71 31 71 31 74 36 C75 38 76 41 77 43 C80 48 84 49 89 51 C90 51 91 51 92 51 C92 52 92 53 92 53 C93 54 95 55 97 55 C99 61 99 64 99 69 C99 70 99 70 99 75 C99 77 99 79 99 81 C99 83 99 85 99 87 C99 93 99 98 99 103 C99 109 99 114 99 120 C99 131 99 142 99 152 C95 152 92 152 89 152 C89 151 89 150 89 149 C89 139 89 128 89 118 C89 113 89 108 89 102 C89 96 89 90 89 84 C89 83 89 83 89 78 C88 67 88 61 81 52 C77 50 77 50 74 49 C73 48 71 48 70 47 C69 47 67 46 66 45 C62 44 59 42 56 41 C51 38 46 36 41 34 C36 32 32 30 27 27 C22 25 17 23 12 20 C10 19 8 18 6 18 C-3 13 -12 11 -22 15 C-29 18 -36 21 -43 25 C-55 31 -68 36 -81 41 C-84 43 -87 44 -90 45 C-91 45 -92 46 -93 46 C-96 47 -99 49 -102 50 C-104 54 -104 54 -104 57 C-105 59 -106 60 -106 61 C-107 64 -107 67 -107 70 C-107 71 -107 71 -107 76 C-107 78 -107 80 -107 82 C-107 84 -107 86 -107 88 C-107 93 -107 99 -107 104 C-107 109 -107 115 -107 120 C-107 131 -107 142 -107 152 C-110 152 -113 152 -116 152 C-117 140 -117 127 -117 115 C-117 109 -117 103 -117 97 C-117 92 -117 86 -117 80 C-117 78 -117 76 -117 74 C-117 71 -117 68 -117 65 C-117 63 -117 61 -117 60 C-116 55 -116 55 -114 52 C-110 50 -107 49 -104 48 C-98 46 -98 46 -94 40 C-94 40 -94 40 -92 35 C-90 30 -90 30 -87 29 C-85 28 -84 28 -82 27 C-77 25 -71 23 -66 21 C-59 17 -52 14 -45 11 C-39 9 -33 5 -26 2 C-16 -2 -10 -4 0 0Z" fill="#F8FAF8" transform="translate(247.375,86.60546875)"/><path d="M0 0 C6 2 12 4 17 7 C23 10 29 13 35 15 C39 16 43 18 47 20 C53 23 59 25 64 27 C68 29 71 31 74 34 C74 39 74 43 74 48 C74 50 74 52 74 54 C73 87 73 87 68 94 C59 93 49 88 43 82 C39 76 37 69 35 62 C34 61 34 59 33 58 C29 57 29 57 25 56 C26 57 26 58 27 60 C27 61 28 63 29 64 C30 66 30 67 31 69 C33 73 33 73 33 76 C28 75 24 72 20 70 C16 67 12 65 8 64 C4 61 1 58 0 54 C-0 50 -0 46 -0 42 C-0 41 -0 40 -0 38 C-0 34 -0 31 -0 27 C-0 24 -0 22 -0 19 C-0 13 -0 6 0 0Z" fill="#042B4C" transform="translate(162,150)"/><path d="M0 0 C7 3 13 6 19 9 C22 11 25 12 28 13 C35 16 42 19 48 22 C57 26 66 30 74 33 C77 35 77 35 80 38 C81 41 81 41 81 45 C81 46 81 48 81 49 C80 55 80 59 75 63 C75 66 75 66 75 70 C75 71 75 71 75 74 C75 76 75 77 75 79 C75 80 75 82 75 83 C74 87 74 90 74 94 C75 94 75 94 78 95 C82 101 81 109 80 116 C78 120 75 122 71 125 C70 126 69 126 68 127 C61 133 53 138 45 142 C38 146 32 150 25 155 C21 157 21 157 17 156 C18 155 19 155 20 154 C27 149 34 144 41 138 C42 137 43 136 44 136 C53 129 62 121 67 111 C53 117 39 124 25 131 C18 135 12 138 4 140 C-1 142 -2 143 -6 147 C-6 147 -6 147 -8 149 C-9 148 -10 146 -11 145 C-14 141 -14 141 -16 140 C-15 137 -15 137 -12 135 C-9 133 -8 130 -7 127 C-6 127 -6 127 -6 127 C-5 129 -5 132 -5 134 C-2 135 1 136 3 137 C4 136 4 134 4 133 C5 133 6 133 6 133 C6 132 6 132 6 131 C16 128 16 128 18 128 C18 127 18 127 18 126 C19 126 19 126 22 125 C28 123 33 120 39 117 C42 115 45 114 49 112 C54 110 54 110 58 107 C59 107 60 107 60 107 C60 106 60 106 61 104 C62 101 62 101 63 99 C63 95 64 91 64 86 C64 86 64 86 64 83 C64 79 64 75 64 71 C64 68 64 65 64 63 C64 56 64 50 64 43 C58 47 58 47 55 50 C55 49 55 49 55 48 C55 48 55 48 53 49 C49 51 45 53 40 55 C39 56 38 56 36 57 C35 58 33 58 32 59 C31 59 31 59 28 61 C25 62 25 62 23 62 C23 61 23 60 23 59 C18 60 14 62 9 65 C8 65 8 65 5 67 C4 68 3 68 2 69 C2 70 2 71 2 72 C-1 75 -1 75 -3 76 C-9 76 -14 71 -18 67 C-17 67 -17 67 -13 66 C-8 64 -8 64 -4 61 C0 59 2 59 6 58 C15 57 21 53 28 49 C30 48 32 47 34 46 C41 43 47 39 53 36 C47 33 40 31 33 29 C37 33 37 33 40 34 C40 35 40 36 40 37 C34 36 34 36 30 34 C29 34 27 33 25 33 C18 31 12 28 5 26 C2 24 -1 23 -5 22 C-10 21 -10 21 -12 18 C-10 18 -8 18 -7 18 C-7 17 -7 17 -7 16 C-8 15 -9 15 -11 15 C-16 13 -16 13 -21 10 C-21 8 -22 7 -23 5 C-15 0 -10 -3 0 0Z" fill="#ECF9FA" transform="translate(243.67578125,110.1015625)"/><path d="M0 0 C-1 2 -1 4 -2 6 C-3 7 -3 8 -3 9 C-7 15 -13 16 -19 19 C-22 20 -22 20 -25 23 C-25 27 -25 27 -25 32 C-25 34 -25 36 -25 38 C-25 40 -26 42 -26 45 C-26 47 -26 49 -26 51 C-26 57 -26 62 -26 68 C-26 74 -26 80 -26 86 C-26 97 -26 109 -26 120 C-29 120 -29 120 -44 123 C-45 123 -46 123 -48 124 C-48 124 -49 124 -50 124 C-50 112 -50 99 -50 87 C-50 81 -50 75 -50 70 C-50 64 -50 59 -50 53 C-50 51 -50 49 -50 47 C-50 44 -50 41 -50 38 C-50 36 -50 34 -50 33 C-50 25 -47 21 -42 16 C-36 12 -29 9 -22 7 C-21 6 -20 6 -18 5 C-15 4 -11 2 -8 1 C-3 -1 -3 -1 0 0Z" fill="#715440" transform="translate(157,119)"/><path d="M0 0 C1 1 3 1 4 2 C6 2 8 3 10 4 C10 4 11 4 12 5 C18 7 24 9 30 11 C38 14 45 17 49 25 C50 30 50 33 50 38 C50 40 50 42 50 44 C50 46 50 48 50 50 C50 52 50 54 50 57 C50 62 50 68 50 73 C50 79 50 85 50 90 C50 102 50 113 50 124 C48 124 47 123 45 123 C35 121 26 121 16 121 C16 91 16 62 16 31 C16 31 17 31 17 31 C17 60 17 90 17 120 C20 120 24 120 27 120 C27 108 27 96 27 84 C27 79 27 73 27 68 C26 62 26 57 26 52 C26 50 26 48 26 46 C26 43 26 40 26 37 C26 36 26 36 26 32 C26 28 26 28 25 23 C23 22 22 22 20 21 C20 20 20 20 20 19 C18 19 17 18 15 18 C9 16 6 14 2 8 C0 3 0 3 0 0Z" fill="#725546" transform="translate(319,119)"/><path d="M0 0 C8 1 15 2 22 5 C23 6 23 8 24 9 C25 9 25 8 26 8 C34 7 41 8 49 10 C53 10 58 11 62 11 C72 11 72 11 74 13 C74 16 74 20 74 23 C73 24 71 24 70 25 C70 29 70 29 70 33 C71 34 72 35 73 36 C73 38 73 40 73 42 C76 42 80 42 83 42 C83 41 83 41 82 37 C81 30 81 24 81 18 C82 18 82 18 83 18 C83 20 83 21 83 23 C83 25 84 27 84 29 C84 30 84 31 84 32 C84 35 85 37 85 40 C90 44 92 43 98 43 C99 43 101 43 102 43 C104 43 105 43 106 43 C106 40 107 38 107 35 C103 35 99 35 95 35 C95 31 95 27 95 23 C98 22 101 22 105 22 C105 21 105 21 105 20 C108 20 112 21 115 21 C117 31 117 31 117 34 C118 34 118 34 119 34 C119 36 119 39 119 41 C122 41 126 40 129 40 C129 39 130 37 130 36 C130 37 130 37 132 40 C128 44 125 44 119 44 C117 43 117 43 116 40 C115 37 114 33 114 30 C114 28 114 27 113 26 C113 25 113 24 113 23 C112 23 112 23 110 23 C106 24 101 24 97 24 C97 27 97 30 97 33 C98 33 98 33 102 33 C108 33 108 33 110 35 C110 39 110 39 110 44 C105 47 103 47 98 47 C96 47 95 47 94 47 C90 47 90 47 85 44 C81 43 77 44 73 44 C72 45 71 46 70 47 C65 47 65 47 59 47 C57 47 55 47 53 47 C48 46 48 46 43 44 C42 44 42 44 40 44 C35 45 31 44 27 43 C27 42 27 42 27 41 C32 41 36 41 41 41 C41 39 42 36 42 34 C41 34 41 34 37 34 C32 34 32 34 31 33 C31 27 31 24 33 19 C37 19 41 20 45 20 C45 17 45 15 45 12 C44 12 44 12 42 12 C38 12 38 12 37 11 C30 11 30 11 26 12 C26 13 25 13 25 14 C24 14 24 14 23 14 C23 15 23 15 23 18 C22 23 22 23 20 25 C20 23 20 20 20 18 C19 18 17 18 16 18 C16 19 16 20 16 21 C15 24 15 24 14 26 C15 27 17 27 18 28 C19 28 19 27 20 27 C20 29 20 31 20 33 C19 33 19 33 18 33 C17 35 17 37 16 39 C10 39 5 38 -1 37 C-3 36 -5 36 -7 35 C-11 34 -11 34 -12 33 C-13 24 -11 15 -9 6 C-8 6 -8 6 -3 7 C-2 5 -1 2 0 0Z" fill="#666364" transform="translate(159,274)"/><path d="M0 0 C0 0 0 0 1 1 C3 1 6 2 8 2 C8 5 8 7 8 10 C4 10 0 9 -4 9 C-5 14 -5 18 -5 23 C-2 23 2 24 5 24 C5 26 5 29 5 31 C-0 32 -5 32 -10 31 C-10 32 -10 32 -10 33 C-8 33 -6 33 -3 34 C-2 34 -1 34 1 34 C4 34 4 34 8 33 C9 34 10 34 11 35 C15 35 18 36 22 36 C23 36 23 36 25 36 C32 36 32 36 35 36 C35 35 36 34 36 33 C47 33 47 33 53 36 C57 36 57 36 61 36 C62 36 63 36 65 36 C68 36 68 36 72 34 C72 31 72 28 72 25 C70 23 63 23 60 23 C60 20 60 17 60 14 C63 14 63 14 76 13 C78 18 78 22 79 26 C79 28 79 29 80 30 C80 31 80 32 80 33 C85 33 88 33 93 31 C94 28 94 26 93 23 C92 18 92 15 92 10 C94 10 95 9 97 9 C99 15 101 22 103 28 C107 28 112 27 116 27 C116 24 115 20 115 17 C117 16 119 15 121 14 C121 11 121 8 121 5 C123 5 125 5 127 5 C128 14 129 22 130 31 C109 36 89 39 67 41 C66 41 65 41 64 41 C49 43 33 42 18 41 C17 41 15 41 13 41 C2 40 -10 39 -21 37 C-22 37 -24 37 -25 36 C-29 36 -33 35 -37 34 C-38 34 -40 33 -41 33 C-44 33 -47 32 -50 31 C-51 28 -51 26 -50 23 C-49 23 -48 24 -47 24 C-38 26 -30 28 -21 29 C-19 22 -19 22 -19 19 C-20 18 -22 17 -23 16 C-22 13 -22 11 -21 8 C-20 8 -18 8 -17 8 C-17 9 -17 9 -16 13 C-15 10 -15 7 -14 4 C-13 4 -13 4 -12 4 C-12 3 -11 2 -11 1 C-7 -0 -4 -0 0 0Z" fill="#AAA5A6" transform="translate(196,284)"/><path d="M0 0 C1 -0 2 -0 3 -0 C20 0 20 0 28 3 C26 7 25 10 22 14 C20 18 19 20 19 25 C21 32 24 36 30 40 C35 42 35 42 39 43 C38 48 38 48 36 51 C23 59 6 57 -8 55 C-9 52 -9 49 -10 45 C-13 21 -13 21 -17 12 C-21 11 -21 11 -26 9 C-28 9 -29 9 -31 8 C-32 8 -34 7 -35 7 C-35 6 -35 4 -35 3 C-25 -2 -11 0 0 0Z" fill="#F3F6F6" transform="translate(341.9375,247.875)"/><path d="M0 0 C1 -0 1 -0 4 -0 C12 -0 19 0 27 2 C27 3 27 3 29 6 C23 9 17 11 10 12 C6 27 4 41 2 56 C-3 56 -8 56 -12 56 C-14 57 -15 57 -16 57 C-26 57 -35 56 -42 49 C-44 46 -44 46 -43 42 C-42 42 -40 41 -39 41 C-31 39 -27 35 -23 29 C-22 23 -21 20 -24 15 C-25 13 -26 11 -28 9 C-29 6 -29 6 -29 2 C-19 0 -10 -0 0 0Z" fill="#F2F5F6" transform="translate(136.125,247.75)"/><path d="M0 0 C3 2 7 3 10 4 C17 7 24 10 30 13 C39 17 48 21 56 25 C59 26 59 26 62 29 C63 32 63 32 63 36 C63 38 63 39 63 40 C62 46 62 50 57 54 C57 57 57 57 57 61 C57 62 57 62 57 65 C57 67 57 68 57 70 C57 71 57 73 57 74 C57 78 56 82 56 85 C57 85 57 85 60 86 C64 92 63 100 62 107 C60 111 57 113 53 116 C52 117 51 118 51 119 C43 125 35 129 27 133 C20 137 14 142 7 146 C3 148 3 148 -1 147 C0 146 1 146 2 145 C9 140 16 135 23 129 C24 128 25 128 26 127 C35 120 44 112 49 102 C35 108 21 115 7 122 C0 126 -6 129 -14 131 C-18 133 -20 134 -24 138 C-24 138 -24 138 -26 140 C-27 139 -28 138 -28 136 C-32 132 -32 132 -34 131 C-33 128 -33 128 -30 126 C-27 124 -26 122 -25 118 C-24 118 -24 118 -24 118 C-23 120 -23 123 -23 125 C-20 126 -17 127 -15 128 C-14 127 -14 125 -14 124 C-13 124 -12 124 -12 124 C-12 123 -12 123 -12 122 C-2 119 -2 119 0 119 C0 118 0 118 0 117 C1 117 1 117 4 116 C10 114 15 111 21 108 C24 106 27 105 31 103 C36 101 36 101 40 98 C41 98 42 98 42 98 C43 98 43 98 43 95 C44 92 44 92 45 90 C46 86 46 82 46 78 C46 77 46 77 46 74 C46 70 46 66 46 62 C46 59 46 57 46 54 C46 47 46 41 46 34 C47 34 47 34 47 34 C47 39 47 44 47 49 C48 49 49 49 49 49 C50 48 50 46 50 45 C51 44 52 42 53 40 C55 35 55 35 55 29 C52 26 49 25 45 24 C39 22 34 19 28 16 C26 15 23 14 20 13 C15 11 10 9 5 6 C1 4 -4 2 -9 0 C-11 -1 -13 -2 -16 -3 C-16 -3 -16 -4 -16 -4 C-9 -5 -6 -3 0 0Z" fill="#B4E7EF" transform="translate(261.625,118.875)"/><path d="M0 0 C1 0 2 0 3 0 C4 13 4 27 4 40 C4 42 4 43 4 45 C4 47 4 48 4 50 C4 54 5 56 7 60 C10 62 14 64 17 66 C18 67 19 67 20 68 C25 71 31 73 36 76 C35 75 35 73 34 72 C34 71 33 69 32 67 C31 66 31 64 30 62 C28 58 28 58 27 55 C35 56 35 56 38 60 C40 64 40 64 41 69 C44 76 46 82 52 86 C54 87 56 88 58 89 C59 89 61 90 63 91 C67 93 67 93 72 92 C76 83 75 71 76 61 C76 52 76 44 77 35 C81 39 80 41 80 46 C80 47 80 48 80 49 C80 50 80 51 80 52 C80 56 80 59 80 63 C81 67 81 72 81 77 C81 78 81 79 81 80 C81 85 81 89 84 94 C85 94 85 94 86 94 C86 93 86 93 88 90 C89 95 89 95 88 97 C85 96 83 96 80 95 C80 94 80 94 78 88 C78 89 77 90 77 91 C75 94 73 96 70 98 C70 99 69 99 69 100 C70 100 70 100 73 102 C75 104 76 105 78 107 C79 106 79 105 80 105 C86 99 86 99 89 99 C87 103 84 107 82 111 C80 114 79 117 79 120 C78 120 77 120 76 120 C76 118 75 117 75 115 C72 106 66 100 58 95 C56 95 54 94 53 93 C48 90 43 88 38 85 C33 82 27 79 21 76 C20 75 19 75 18 74 C13 72 7 69 2 66 C3 68 4 69 5 71 C6 72 6 74 7 75 C8 75 8 75 9 75 C10 77 12 78 13 80 C14 81 15 82 16 83 C18 86 20 88 22 91 C30 101 30 101 34 103 C33 99 32 95 30 91 C31 91 31 91 32 91 C34 95 37 98 39 102 C40 104 42 106 43 108 C44 110 45 111 46 113 C46 113 46 113 48 116 C44 117 41 117 37 116 C33 113 31 109 28 105 C26 103 24 101 22 98 C18 94 14 89 11 83 C9 81 9 81 4 78 C-3 72 -3 72 -4 68 C-4 64 -4 60 -4 56 C-4 56 -4 56 -4 53 C-4 45 -4 37 0 29 C-0 26 -0 24 -1 21 C-1 17 -1 13 -2 9 C-2 8 -2 7 -2 5 C-2 2 -2 2 0 0Z" fill="#5FB9DE" transform="translate(159,150)"/><path d="M0 0 C5 0 10 2 14 5 C16 6 17 6 19 7 C21 8 23 9 24 10 C28 12 31 13 35 15 C37 16 38 17 40 18 C46 21 53 24 59 27 C67 30 74 34 81 39 C84 40 84 40 89 39 C92 37 95 36 98 34 C106 30 114 26 121 23 C130 18 140 14 149 9 C151 8 154 6 157 5 C158 5 159 4 160 4 C167 -0 167 -0 173 1 C173 2 173 2 175 5 C167 10 159 15 151 19 C150 20 149 20 147 21 C140 25 132 28 124 32 C115 36 107 40 98 45 C89 50 89 50 84 51 C80 49 76 47 72 45 C71 44 69 44 68 43 C65 41 63 40 60 38 C51 33 42 29 33 24 C31 23 28 22 26 21 C25 20 24 20 23 19 C19 17 15 16 11 14 C10 13 8 12 7 12 C4 10 1 8 -2 6 C-2 2 -2 2 0 0Z" fill="#F4F6F6" transform="translate(151,343)"/><path d="M0 0 C4 6 4 14 4 22 C2 22 -1 23 -3 23 C-3 22 -4 20 -4 19 C-3 18 -2 18 -1 17 C-2 11 -2 11 -3 10 C-8 10 -12 11 -18 12 C-28 16 -38 18 -48 19 C-49 19 -51 19 -52 19 C-55 19 -57 20 -60 20 C-71 21 -71 21 -76 25 C-79 32 -77 44 -76 51 C-79 51 -83 51 -86 51 C-86 50 -87 49 -87 48 C-88 44 -88 44 -90 42 C-90 38 -90 38 -89 34 C-88 33 -87 33 -86 32 C-86 27 -86 27 -86 22 C-100 20 -100 20 -108 20 C-112 20 -112 20 -116 19 C-121 18 -126 18 -132 18 C-133 18 -134 18 -135 18 C-136 17 -136 16 -137 15 C-141 14 -141 14 -145 12 C-146 12 -146 12 -150 11 C-153 10 -156 10 -159 9 C-159 11 -160 12 -160 14 C-161 15 -162 16 -163 17 C-164 17 -164 17 -168 15 C-167 3 -167 3 -166 1 C-161 2 -161 2 -156 4 C-110 21 -45 18 0 0Z" fill="#F0F1F0" transform="translate(318,265)"/><path d="M0 0 C-1 2 -1 4 -2 6 C-3 7 -3 8 -3 9 C-7 15 -13 16 -19 19 C-22 20 -22 20 -25 23 C-25 27 -25 27 -25 32 C-25 34 -25 36 -25 38 C-25 40 -26 42 -26 45 C-26 47 -26 49 -26 51 C-26 57 -26 62 -26 68 C-26 74 -26 80 -26 86 C-26 97 -26 109 -26 120 C-26 120 -27 120 -27 120 C-27 96 -27 72 -27 47 C-33 49 -40 52 -46 54 C-46 77 -47 100 -47 124 C-48 124 -49 124 -50 124 C-50 112 -50 99 -50 87 C-50 81 -50 75 -50 70 C-50 64 -50 59 -50 53 C-50 51 -50 49 -50 47 C-50 44 -50 41 -50 38 C-50 36 -50 34 -50 33 C-50 25 -47 21 -42 16 C-36 12 -29 9 -22 7 C-21 6 -20 6 -18 5 C-15 4 -11 2 -8 1 C-3 -1 -3 -1 0 0Z" fill="#CD9361" transform="translate(157,119)"/><path d="M0 0 C1 1 3 1 4 2 C6 2 8 3 10 4 C10 4 11 4 12 5 C18 7 24 9 30 11 C38 14 45 17 49 25 C50 30 50 33 50 38 C50 40 50 42 50 44 C50 46 50 48 50 50 C50 52 50 54 50 57 C50 62 50 68 50 73 C50 79 50 85 50 90 C50 102 50 113 50 124 C49 124 47 123 46 123 C45 118 45 114 45 109 C45 108 45 108 45 105 C45 104 45 102 45 101 C45 99 45 98 45 96 C45 91 44 87 44 82 C44 79 44 76 44 72 C44 65 44 57 44 49 C33 46 33 46 28 45 C28 46 27 48 27 49 C27 48 27 46 27 45 C27 43 27 41 27 39 C27 38 27 38 26 33 C26 28 26 28 25 23 C23 22 22 22 20 21 C20 20 20 20 20 19 C18 19 17 18 15 18 C9 16 6 14 2 8 C0 3 0 3 0 0Z" fill="#CF915D" transform="translate(319,119)"/><path d="M0 0 C4 -0 8 -0 13 -0 C14 -0 15 -0 16 -0 C17 -0 18 -0 20 -0 C20 -0 20 -0 23 -0 C26 0 26 0 29 0 C33 1 37 1 41 1 C42 1 42 1 45 1 C47 1 49 1 50 1 C51 1 51 1 55 1 C65 1 75 1 85 0 C91 -0 98 -0 105 0 C101 4 97 6 92 8 C80 13 80 13 75 16 C70 18 66 20 62 22 C61 23 61 23 58 24 C52 26 48 25 43 23 C42 22 40 21 39 21 C38 20 37 20 35 19 C34 19 33 18 31 17 C2 4 2 4 0 0Z" fill="#287DA5" transform="translate(185,332)"/><path d="M0 0 C-2 12 -8 22 -14 32 C-17 39 -16 43 -15 50 C-16 50 -17 50 -18 50 C-28 49 -38 48 -47 51 C-47 52 -47 52 -47 53 C-48 53 -48 52 -49 52 C-48 50 -47 48 -47 46 C-46 45 -46 44 -45 43 C-45 41 -44 40 -43 38 C-43 34 -42 31 -42 27 C-42 26 -42 26 -41 22 C-41 20 -41 19 -41 17 C-40 17 -40 17 -37 16 C-36 16 -36 16 -31 15 C-29 15 -27 14 -25 14 C-20 13 -20 13 -17 12 C-18 12 -19 11 -20 11 C-22 11 -23 10 -25 10 C-26 9 -27 9 -29 8 C-33 7 -36 5 -40 3 C-40 3 -40 2 -40 2 C-39 2 -39 2 -34 2 C-32 2 -30 2 -27 2 C-27 2 -27 2 -23 2 C-15 2 -8 0 0 0Z" fill="#979091" transform="translate(373,312)"/><path d="M0 0 C1 0 1 0 5 1 C15 3 25 3 35 3 C30 8 28 8 22 9 C21 10 19 10 18 10 C16 11 15 11 14 11 C22 15 31 17 40 18 C41 23 42 28 43 34 C44 40 47 46 50 52 C50 53 51 54 51 55 C51 55 51 55 50 57 C49 56 49 55 48 55 C41 49 34 49 26 49 C21 49 17 50 13 52 C13 51 13 50 13 49 C15 38 14 31 8 21 C6 17 4 13 2 9 C2 8 2 7 1 6 C0 3 0 3 0 0Z" fill="#A49FA1" transform="translate(102,312)"/><path d="M0 0 C8 1 15 5 20 11 C24 17 26 21 25 28 C24 32 24 32 23 34 C19 33 16 33 12 32 C11 33 10 35 9 36 C6 41 6 41 0 42 C0 28 0 14 0 0Z" fill="#48B1DF" transform="translate(169,160)"/><path d="M0 0 C15 -0 15 -0 21 1 C22 2 22 2 22 7 C22 9 22 10 22 12 C21 12 21 12 18 14 C18 18 18 18 18 22 C19 23 20 24 21 25 C21 27 21 29 21 31 C24 31 28 31 31 31 C31 30 31 30 30 26 C29 19 29 13 29 7 C30 7 30 7 31 7 C31 9 31 10 31 12 C31 14 32 16 32 18 C32 19 32 20 32 21 C32 24 33 26 33 29 C38 33 40 32 46 32 C47 32 49 32 50 32 C52 32 53 32 54 32 C54 29 55 27 55 24 C51 24 47 24 43 24 C43 20 43 16 43 12 C46 11 49 11 53 11 C53 10 53 10 53 9 C55 9 55 9 63 10 C65 20 65 20 65 23 C66 23 66 23 67 23 C67 25 67 28 67 30 C70 30 74 29 77 29 C77 28 78 26 78 25 C78 26 78 26 80 29 C76 33 73 33 67 33 C65 32 65 32 64 29 C63 26 62 22 62 19 C62 17 62 16 61 15 C61 14 61 13 61 12 C60 12 59 12 58 12 C54 13 49 13 45 13 C45 16 45 19 45 22 C47 22 49 22 50 22 C56 22 56 22 58 24 C58 28 58 28 58 33 C53 36 51 36 46 36 C44 36 43 36 42 36 C38 36 38 36 33 33 C29 32 25 33 21 33 C20 34 19 35 18 36 C13 36 13 36 7 36 C5 36 3 36 1 36 C-4 35 -4 35 -9 33 C-10 33 -10 33 -12 34 C-17 34 -21 33 -25 32 C-25 31 -25 31 -25 30 C-20 30 -16 30 -11 30 C-11 28 -10 25 -10 23 C-11 23 -13 23 -14 23 C-19 22 -19 22 -20 21 C-20 19 -20 17 -20 15 C-19 15 -19 14 -18 14 C-18 16 -18 17 -18 19 C-15 20 -11 20 -8 21 C-7 20 -6 20 -5 19 C-5 24 -5 28 -5 33 C2 33 10 32 17 32 C17 30 18 27 18 25 C17 25 15 25 14 25 C9 25 9 25 6 24 C6 23 6 23 6 22 C9 22 12 22 15 22 C15 19 15 17 15 14 C13 14 10 14 8 14 C8 14 8 14 7 11 C11 11 15 11 19 11 C19 8 19 6 19 3 C18 3 18 3 14 3 C10 3 6 3 1 2 C1 1 0 1 0 0Z" fill="#675C59" transform="translate(211,285)"/><path d="M0 0 C16 1 16 1 20 5 C20 7 20 9 20 11 C20 11 19 12 19 12 C17 12 15 12 13 12 C12 17 11 21 10 26 C11 26 13 26 14 26 C14 28 13 31 13 33 C11 33 10 33 8 33 C8 33 8 33 7 32 C4 31 1 31 -2 30 C-3 30 -5 29 -6 29 C-6 27 -6 24 -6 22 C-6 22 -5 21 -5 21 C-3 21 -2 21 0 21 C0 20 0 20 0 19 C-2 19 -4 19 -6 19 C-7 20 -7 21 -8 22 C-9 22 -11 22 -12 22 C-12 17 -11 12 -11 7 C-8 7 -5 7 -2 7 C-2 7 -1 8 -1 8 C-1 7 -1 6 -1 5 C-1 1 -1 1 0 0Z" fill="#4AADDB" transform="translate(160,277)"/><path d="M0 0 C0 0 0 0 1 2 C-2 3 -5 3 -8 4 C-11 19 -14 33 -16 48 C-19 48 -23 47 -26 47 C-26 46 -26 44 -26 43 C-27 43 -27 43 -30 44 C-33 44 -35 44 -38 44 C-39 44 -41 44 -42 44 C-46 44 -49 43 -53 42 C-53 41 -53 41 -53 40 C-52 40 -51 40 -50 40 C-40 38 -29 35 -21 27 C-19 21 -17 15 -15 8 C-13 0 -8 -1 0 0Z" fill="#999493" transform="translate(154,256)"/><path d="M0 0 C5 -0 7 -0 11 2 C16 7 18 14 20 20 C21 25 21 25 24 29 C24 30 24 30 24 31 C26 32 27 32 29 33 C30 33 30 33 32 35 C39 38 46 39 53 40 C53 41 53 41 53 42 C48 44 43 44 38 44 C36 44 35 44 33 44 C30 44 30 44 28 43 C28 44 27 46 27 47 C23 47 20 47 16 47 C15 44 15 41 14 37 C11 12 11 12 7 4 C3 3 3 3 0 2 C0 1 0 1 0 0Z" fill="#9E9697" transform="translate(318,256)"/><path d="M0 0 C6 1 12 2 17 3 C27 6 36 8 46 8 C52 9 56 11 62 14 C63 14 63 14 66 16 C68 18 68 18 69 22 C63 26 59 28 51 27 C46 25 46 25 41 23 C33 19 25 16 17 13 C17 12 17 12 17 11 C25 13 33 15 41 18 C45 19 49 20 53 20 C40 14 28 10 14 8 C11 7 8 6 5 4 C3 4 2 3 0 3 C0 2 0 1 0 0Z" fill="#DBFAFC" transform="translate(204,134)"/><path d="M0 0 C7 0 15 0 22 0 C22 3 22 5 22 8 C18 8 14 8 10 8 C10 9 11 9 11 10 C13 10 16 11 18 11 C18 14 18 16 18 19 C15 19 12 19 9 19 C9 20 9 20 9 21 C13 22 16 22 20 23 C20 25 20 26 20 28 C18 30 15 29 12 29 C11 29 10 29 9 29 C5 29 5 29 0 27 C0 18 0 9 0 0Z" fill="#1AA6E8" transform="translate(208,288)"/><path d="M0 0 C0 0 1 1 1 1 C3 1 6 2 8 2 C8 5 8 7 8 10 C4 10 0 9 -4 9 C-5 14 -5 18 -5 23 C-2 23 2 24 5 24 C5 26 5 29 5 31 C0 32 -2 32 -7 31 C-8 31 -9 30 -10 30 C-13 29 -13 29 -16 25 C-17 17 -15 9 -12 2 C-8 -0 -5 -0 0 0Z" fill="#1EA6E4" transform="translate(196,284)"/><path d="M0 0 C0 2 1 5 1 7 C-4 9 -4 9 -10 9 C-10 11 -10 12 -10 14 C-7 14 -3 13 0 13 C0 15 1 18 1 20 C1 20 0 21 0 21 C-2 21 -4 21 -6 21 C-6 24 -6 28 -6 31 C-7 31 -7 31 -8 31 C-8 32 -8 32 -8 33 C-10 33 -12 33 -14 33 C-16 29 -17 24 -18 20 C-19 13 -19 13 -20 11 C-20 9 -20 7 -20 5 C-18 4 -16 3 -13 2 C-13 2 -13 2 -10 1 C-6 0 -6 0 0 0Z" fill="#1DA7E6" transform="translate(314,277)"/><path d="M0 0 C2 5 4 10 6 15 C7 19 7 19 11 23 C11 24 11 24 11 25 C12 25 12 25 13 25 C14 27 16 28 17 30 C18 31 19 32 20 33 C22 36 24 38 26 41 C34 51 34 51 38 53 C37 49 36 45 34 41 C35 41 35 41 36 41 C38 45 41 48 43 52 C44 54 46 56 47 58 C48 60 49 61 50 63 C51 64 51 65 52 66 C48 67 45 67 41 66 C37 63 35 59 32 55 C30 53 28 51 26 48 C22 44 18 39 15 33 C13 31 13 31 8 28 C1 22 1 22 0 18 C-0 15 -0 12 -0 9 C-0 7 -0 6 -0 4 C-0 3 -0 1 0 0Z" fill="#4AA2C7" transform="translate(155,200)"/><path d="M0 0 C0 2 0 4 0 6 C-3 8 -3 8 -6 8 C-6 9 -6 10 -6 11 C-5 12 -5 13 -5 15 C-5 16 -5 17 -4 18 C-4 22 -4 25 -4 29 C-7 31 -7 31 -13 31 C-14 24 -15 17 -15 10 C-18 10 -21 10 -24 10 C-24 4 -24 4 -23 2 C-15 0 -8 -0 0 0Z" fill="#1CA5E3" transform="translate(291,284)"/><path d="M0 0 C1 0 1 0 4 0 C5 0 6 0 7 0 C7 2 7 3 7 5 C4 6 1 6 -3 7 C-3 11 -3 16 -4 20 C1 20 5 21 9 21 C9 23 9 25 9 27 C3 28 -4 30 -10 27 C-13 23 -12 18 -12 13 C-12 12 -12 11 -12 10 C-12 7 -12 5 -12 2 C-7 -0 -5 -0 0 0Z" fill="#15AAEE" transform="translate(255.75,288.875)"/><path d="M0 0 C1 0 2 0 3 0 C4 13 4 27 4 40 C4 42 4 43 4 45 C4 47 4 48 4 50 C4 54 5 56 7 60 C10 62 14 64 17 66 C18 67 19 67 20 68 C23 69 25 71 28 72 C29 73 30 73 32 74 C34 75 34 75 37 75 C37 77 38 78 38 80 C25 76 11 72 3 61 C0 56 -0 52 -0 46 C-0 45 -0 44 0 43 C0 41 0 40 0 39 C0 29 0 20 -2 11 C-2 8 -2 8 -2 2 C-1 1 -1 1 0 0Z" fill="#1884BC" transform="translate(159,150)"/><path d="M0 0 C2 0 4 1 6 1 C10 2 15 2 20 2 C19 2 19 2 16 4 C19 4 21 5 24 5 C24 5 24 6 24 6 C20 6 16 6 12 6 C12 15 13 24 13 33 C17 34 20 34 24 34 C26 34 27 34 28 34 C29 34 29 34 31 34 C31 32 32 31 32 29 C31 29 29 28 28 28 C30 28 31 28 33 28 C33 30 33 33 33 35 C32 36 32 36 27 36 C25 36 23 36 21 36 C20 36 19 36 18 36 C15 36 13 36 10 36 C10 32 9 27 9 23 C8 24 8 24 7 25 C2 24 2 24 -3 22 C-3 21 -4 19 -4 18 C-4 20 -4 22 -4 24 C-2 24 1 25 3 25 C3 25 3 26 3 26 C0 26 -2 26 -5 26 C-6 25 -6 25 -6 21 C-6 16 -6 16 -4 11 C-0 11 4 12 8 12 C8 9 8 7 8 4 C6 4 3 4 1 4 C1 3 0 1 0 0Z" fill="#81929A" transform="translate(196,282)"/><path d="M0 0 C4 4 3 6 3 11 C3 12 3 13 3 14 C3 15 3 16 3 17 C3 21 3 24 4 28 C4 32 4 37 4 42 C4 43 4 44 4 45 C4 50 4 54 7 59 C8 59 8 59 9 59 C10 58 10 56 11 55 C12 60 12 60 11 62 C8 61 6 61 3 60 C3 59 3 59 1 53 C1 54 0 55 -0 56 C-2 59 -4 61 -7 63 C-10 63 -12 62 -15 61 C-15 60 -14 58 -14 57 C-11 57 -9 58 -6 58 C-1 48 -2 37 -2 26 C-1 17 -1 9 0 0Z" fill="#2D8BC2" transform="translate(236,185)"/><path d="M0 0 C-3 0 -5 0 -8 0 C-8 3 -9 5 -9 8 C-6 8 -3 8 0 8 C0 13 1 17 1 22 C-2 18 -2 14 -2 9 C-3 9 -3 9 -6 9 C-10 9 -10 9 -12 8 C-12 9 -12 9 -12 10 C-15 10 -19 11 -22 11 C-22 15 -22 19 -22 23 C-18 23 -14 23 -10 23 C-10 26 -10 28 -10 31 C-12 33 -17 32 -19 32 C-20 32 -20 32 -24 32 C-28 32 -28 32 -31 31 C-34 26 -34 21 -35 16 C-35 15 -35 15 -35 13 C-35 10 -35 10 -35 4 C-33 1 -33 1 -30 0 C-29 -0 -29 -1 -28 -1 C-25 -1 -21 -2 -18 -2 C-17 -2 -17 -2 -13 -3 C-7 -3 -5 -2 0 0 Z M-32 5 C-32 9 -32 12 -32 16 C-32 17 -32 18 -32 19 C-33 26 -33 26 -30 30 C-24 32 -17 31 -11 30 C-11 28 -11 26 -11 24 C-15 24 -20 23 -24 23 C-24 19 -23 14 -23 10 C-20 9 -16 9 -13 8 C-13 6 -13 5 -13 3 C-15 3 -18 3 -20 3 C-22 3 -23 3 -24 3 C-28 3 -28 3 -32 5Z" fill="#4E778A" transform="translate(276,286)"/><path d="M0 0 C2 0 4 0 6 0 C7 7 8 14 8 21 C2 25 -4 24 -11 24 C-7 22 -7 22 -5 22 C-5 19 -6 15 -6 12 C-4 11 -2 10 0 9 C0 6 0 3 0 0Z" fill="#CECBCA" transform="translate(317,289)"/><path d="M0 0 C7 3 12 3 19 -0 C19 1 19 3 19 4 C3 12 3 12 -5 11 C-4 10 -3 8 -2 7 C-3 7 -4 6 -5 6 C-7 5 -8 5 -9 4 C-10 4 -10 4 -13 3 C-16 2 -16 2 -20 -0 C-20 -0 -20 -0 -17 -0 C-17 -1 -17 -1 -14 -1 C-14 -2 -14 -2 -13 -3 C-8 -5 -5 -2 0 0Z" fill="#69D1EA" transform="translate(250.375,158.125)"/><path d="M0 0 C3 -1 3 -1 7 0 C10 3 12 6 15 9 C16 10 17 12 18 13 C26 24 26 24 26 27 C23 27 20 27 17 27 C16 26 16 24 15 23 C12 19 9 14 7 10 C4 6 4 6 2 1 C1 1 1 0 0 0Z" fill="#146598" transform="translate(189,240)"/><path d="M0 0 C2 6 3 12 3 18 C1 18 -1 18 -3 18 C-4 16 -4 13 -5 11 C-9 11 -12 10 -16 10 C-16 7 -16 4 -16 1 C-11 0 -5 -0 0 0Z" fill="#F5F2F0" transform="translate(272,297)"/><path d="M0 0 C3 2 7 3 10 4 C17 7 24 10 31 13 C33 14 35 15 37 16 C38 17 40 17 41 18 C44 19 47 21 50 22 C50 23 50 23 50 24 C43 23 38 21 31 18 C28 16 24 14 20 13 C15 11 10 9 5 6 C1 4 -4 2 -9 0 C-11 -1 -13 -2 -16 -3 C-16 -3 -16 -4 -16 -4 C-9 -5 -6 -3 0 0Z" fill="#74C5DA" transform="translate(261.625,118.875)"/><path d="M0 0 C1 0 1 0 2 0 C2 8 -1 11 -4 18 C-7 24 -6 29 -5 35 C-11 33 -16 30 -21 25 C-20 21 -18 16 -16 12 C-15 16 -15 16 -15 22 C-14 23 -12 23 -11 24 C-7 16 -4 8 0 0Z" fill="#ECEDEE" transform="translate(363,327)"/><path d="M0 0 C1 0 1 0 2 0 C4 4 7 7 9 11 C10 13 12 15 13 17 C13 18 13 18 16 22 C17 23 17 24 18 25 C14 26 11 26 7 25 C3 22 1 18 -2 14 C-3 13 -4 11 -5 10 C-5 9 -6 7 -6 6 C-1 7 1 9 4 12 C3 8 2 4 0 0Z" fill="#78BFD9" transform="translate(189,241)"/></svg>
